<svg xmlns="http://www.w3.org/2000/svg" width="512" height="512" viewBox="0 0 128 128"><g><path d="M121.5,55.75A1.75,1.75,0,0,0,123.25,54V35.25a1.75,1.75,0,0,0-1.75-1.75H6.5a1.751,1.751,0,0,0-1.75,1.75V54A1.751,1.751,0,0,0,6.5,55.75a8.25,8.25,0,0,1,0,16.5A1.75,1.75,0,0,0,4.75,74V92.75A1.75,1.75,0,0,0,6.5,94.5h115a1.749,1.749,0,0,0,1.75-1.75V74a1.749,1.749,0,0,0-1.75-1.75,8.25,8.25,0,0,1,0-16.5ZM109.75,64a11.77,11.77,0,0,0,10,11.62V91h-86V89.75a1.75,1.75,0,1,0-3.5,0V91h-22V75.62a11.751,11.751,0,0,0,0-23.24V37h22v1.25a1.75,1.75,0,1,0,3.5,0V37h86V52.38A11.77,11.77,0,0,0,109.75,64Z"/><path d="M32,76.556a1.75,1.75,0,0,0-1.75,1.75v5.721a1.75,1.75,0,1,0,3.5,0V78.306A1.75,1.75,0,0,0,32,76.556Z"/><path d="M32,42.222a1.751,1.751,0,0,0-1.75,1.75v5.722a1.75,1.75,0,0,0,3.5,0V43.972A1.751,1.751,0,0,0,32,42.222Z"/><path d="M32,53.667a1.75,1.75,0,0,0-1.75,1.75v5.722a1.75,1.75,0,0,0,3.5,0V55.417A1.75,1.75,0,0,0,32,53.667Z"/><path d="M32,65.111a1.751,1.751,0,0,0-1.75,1.75v5.722a1.75,1.75,0,1,0,3.5,0V66.861A1.751,1.751,0,0,0,32,65.111Z"/><path d="M102.5,52.667H44.75a1.75,1.75,0,0,0,0,3.5H102.5a1.75,1.75,0,0,0,0-3.5Z"/><path d="M102.5,62.25H44.75a1.75,1.75,0,0,0,0,3.5H102.5a1.75,1.75,0,0,0,0-3.5Z"/><path d="M44.75,46.583H69.525a1.75,1.75,0,0,0,0-3.5H44.75a1.75,1.75,0,0,0,0,3.5Z"/><path d="M102.5,71.833H44.75a1.75,1.75,0,0,0,0,3.5H102.5a1.75,1.75,0,0,0,0-3.5Z"/><path d="M102.5,81.417H88.744a1.75,1.75,0,0,0,0,3.5H102.5a1.75,1.75,0,0,0,0-3.5Z"/></g></svg>