<svg id="Icons" height="512" viewBox="0 0 74 74" width="512" xmlns="http://www.w3.org/2000/svg"><path d="m44.47 48.29h-2.91a1 1 0 0 1 0-2h2.91a1 1 0 0 1 0 2z"/><path d="m69.62 48.29h-8.18a1 1 0 0 1 0-2h8.18a.376.376 0 0 0 .38-.38v-25.41a.385.385 0 0 0 -.38-.38h-44.17a.385.385 0 0 0 -.38.38v25.41a.376.376 0 0 0 .38.38h9.11a1 1 0 0 1 0 2h-9.11a2.382 2.382 0 0 1 -2.38-2.38v-25.41a2.383 2.383 0 0 1 2.38-2.38h44.17a2.382 2.382 0 0 1 2.38 2.38v25.41a2.382 2.382 0 0 1 -2.38 2.38z"/><path d="m54.44 48.29h-2.97a1 1 0 0 1 0-2h2.97a1 1 0 0 1 0 2z"/><path d="m54.44 48.29h-2.97a1 1 0 0 1 0-2h2.97a1 1 0 0 1 0 2z"/><path d="m64.02 48.29h-2.58a1 1 0 0 1 0-2h1.643a7.991 7.991 0 0 1 6.917-6.908v-12.355a7.989 7.989 0 0 1 -6.917-6.907h-31.1a7.989 7.989 0 0 1 -6.917 6.907v12.406a7.935 7.935 0 0 1 6.857 6.857h2.637a1 1 0 0 1 0 2h-3.57a1 1 0 0 1 -1-1 5.927 5.927 0 0 0 -5.92-5.92 1 1 0 0 1 -1-1v-14.28a1 1 0 0 1 1-1 5.982 5.982 0 0 0 5.98-5.97 1 1 0 0 1 1-1h32.97a1 1 0 0 1 1 1 5.982 5.982 0 0 0 5.98 5.97 1 1 0 0 1 1 1v14.23a1 1 0 0 1 -1 1 5.982 5.982 0 0 0 -5.98 5.97 1 1 0 0 1 -1 1z"/><path d="m44.47 48.29h-2.91a1 1 0 0 1 0-2h2.91a1 1 0 0 1 0 2z"/><path d="m62.829 36.554a3.348 3.348 0 1 1 3.347-3.348 3.352 3.352 0 0 1 -3.347 3.348zm0-4.695a1.348 1.348 0 1 0 1.347 1.347 1.349 1.349 0 0 0 -1.347-1.347z"/><path d="m32.242 36.554a3.348 3.348 0 1 1 3.347-3.348 3.351 3.351 0 0 1 -3.347 3.348zm0-4.695a1.348 1.348 0 1 0 1.347 1.347 1.348 1.348 0 0 0 -1.347-1.347z"/><path d="m47.535 33.651a3.2 3.2 0 1 1 3.394-3.2 1 1 0 1 1 -2 0 1.409 1.409 0 1 0 -1.394 1.2 1 1 0 0 1 0 2z"/><path d="m47.535 38.046a3.3 3.3 0 0 1 -3.393-3.2 1 1 0 0 1 2 0 1.409 1.409 0 1 0 1.393-1.2 1 1 0 0 1 0-2 3.2 3.2 0 1 1 0 6.4z"/><path d="m47.535 38.96a1 1 0 0 1 -1-1v-.913a1 1 0 0 1 2 0v.913a1 1 0 0 1 -1 1z"/><path d="m47.535 29.253a1 1 0 0 1 -1-1v-.913a1 1 0 0 1 2 0v.913a1 1 0 0 1 -1 1z"/><path d="m47.535 42.4a9.75 9.75 0 1 1 9.75-9.749 9.76 9.76 0 0 1 -9.75 9.749zm0-17.5a7.75 7.75 0 1 0 7.75 7.75 7.758 7.758 0 0 0 -7.75-7.75z"/><path d="m39.5 60.544h-19.144a1 1 0 0 1 0-2h19.144a1 1 0 0 1 0 2z"/><path d="m15.227 60.544h-2.757a1 1 0 1 1 0-2h2.757a1 1 0 1 1 0 2z"/><path d="m24.47 52.882h-12.776a1 1 0 0 1 0-2h12.776a1 1 0 1 1 0 2z"/><path d="m8.271 52.882h-1.839a1 1 0 0 1 0-2h1.839a1 1 0 0 1 0 2z"/><path d="m20.545 43.305h-9.773a1 1 0 1 1 0-2h9.773a1 1 0 0 1 0 2z"/><path d="m6.939 43.305h-1.539a1 1 0 0 1 0-2h1.539a1 1 0 0 1 0 2z"/><path d="m31 15.456h-19.1a1 1 0 0 1 0-2h19.1a1 1 0 0 1 0 2z"/><path d="m6.788 15.456h-2.75a1 1 0 0 1 0-2h2.75a1 1 0 0 1 0 2z"/><path d="m18.151 25.033h-9.774a1 1 0 0 1 0-2h9.774a1 1 0 0 1 0 2z"/><path d="m4.545 25.033h-1.545a1 1 0 0 1 0-2h1.545a1 1 0 1 1 0 2z"/></svg>