<?xml version="1.0" encoding="iso-8859-1"?>
<!-- Generator: Adobe Illustrator 19.0.0, SVG Export Plug-In . SVG Version: 6.00 Build 0)  -->
<svg version="1.1" id="Capa_1" xmlns="http://www.w3.org/2000/svg" xmlns:xlink="http://www.w3.org/1999/xlink" x="0px" y="0px"
	 viewBox="0 0 512 512" style="enable-background:new 0 0 512 512;" xml:space="preserve">
<g>
	<g>
		<path d="M426,0H161.24c-3.978,0-7.793,1.58-10.606,4.394l-75.24,75.24C72.58,82.446,71,86.262,71,90.24V497
			c0,8.284,6.716,15,15,15h340c8.284,0,15-6.716,15-15V15C441,6.716,434.284,0,426,0z M411,482H101V96.453L167.453,30H411V482z"/>
	</g>
</g>
<g>
	<g>
		<path d="M366,326H146c-8.284,0-15,6.716-15,15s6.716,15,15,15h220c8.284,0,15-6.716,15-15S374.284,326,366,326z"/>
	</g>
</g>
<g>
	<g>
		<path d="M366,251H146c-8.284,0-15,6.716-15,15s6.716,15,15,15h220c8.284,0,15-6.716,15-15S374.284,251,366,251z"/>
	</g>
</g>
<g>
	<g>
		<path d="M366,401H146c-8.284,0-15,6.716-15,15s6.716,15,15,15h220c8.284,0,15-6.716,15-15S374.284,401,366,401z"/>
	</g>
</g>
<g>
	<g>
		<path d="M308.78,98.758c-5.856-5.858-15.354-5.858-21.213,0L241.9,144.424l-17.47-17.47c-5.857-5.857-15.355-5.857-21.213,0
			c-5.858,5.857-5.858,15.355,0,21.213l28.078,28.076c2.929,2.93,6.767,4.394,10.606,4.394c3.838,0,7.678-1.465,10.606-4.394
			l56.273-56.272C314.638,114.114,314.638,104.616,308.78,98.758z"/>
	</g>
</g>
<g>
</g>
<g>
</g>
<g>
</g>
<g>
</g>
<g>
</g>
<g>
</g>
<g>
</g>
<g>
</g>
<g>
</g>
<g>
</g>
<g>
</g>
<g>
</g>
<g>
</g>
<g>
</g>
<g>
</g>
</svg>
