<svg height="448pt" viewBox="0 -48 448 448" width="448pt" xmlns="http://www.w3.org/2000/svg"><path d="m16 352h416c8.835938 0 16-7.164062 16-16v-256c0-8.835938-7.164062-16-16-16h-208l-70.398438-64h-137.601562c-8.835938 0-16 7.164062-16 16v320c0 8.835938 7.164062 16 16 16zm112-160h80v-80c0-8.835938 7.164062-16 16-16s16 7.164062 16 16v80h80c8.835938 0 16 7.164062 16 16s-7.164062 16-16 16h-80v80c0 8.835938-7.164062 16-16 16s-16-7.164062-16-16v-80h-80c-8.835938 0-16-7.164062-16-16s7.164062-16 16-16zm0 0"/></svg>